<svg width="35" height="35" viewBox="0 0 35 35" fill="none" xmlns="http://www.w3.org/2000/svg">
<path d="M33.91 4.24363C34.1144 4.44865 34.2291 4.72633 34.2291 5.01582C34.2291 5.30531 34.1144 5.58299 33.91 5.78801L31.6284 8.07176L27.2534 3.69676L29.535 1.41301C29.7401 1.20796 30.0183 1.09277 30.3083 1.09277C30.5983 1.09277 30.8765 1.20796 31.0816 1.41301L33.91 4.24145V4.24363ZM30.0819 9.61613L25.7069 5.24113L10.8034 20.1468C10.683 20.2671 10.5924 20.4139 10.5388 20.5755L8.77782 25.8561C8.74588 25.9524 8.74135 26.0557 8.76472 26.1544C8.78809 26.2531 8.83846 26.3433 8.91018 26.415C8.9819 26.4867 9.07215 26.5371 9.17085 26.5605C9.26954 26.5839 9.3728 26.5793 9.46907 26.5474L14.7497 24.7864C14.9111 24.7334 15.0578 24.6435 15.1784 24.5239L30.0819 9.61613Z" fill="#4B2E2B"/>
<path fill-rule="evenodd" clip-rule="evenodd" d="M2.1875 29.5312C2.1875 30.4015 2.5332 31.2361 3.14856 31.8514C3.76391 32.4668 4.59851 32.8125 5.46875 32.8125H29.5312C30.4015 32.8125 31.2361 32.4668 31.8514 31.8514C32.4668 31.2361 32.8125 30.4015 32.8125 29.5312V16.4062C32.8125 16.1162 32.6973 15.838 32.4921 15.6329C32.287 15.4277 32.0088 15.3125 31.7188 15.3125C31.4287 15.3125 31.1505 15.4277 30.9454 15.6329C30.7402 15.838 30.625 16.1162 30.625 16.4062V29.5312C30.625 29.8213 30.5098 30.0995 30.3046 30.3046C30.0995 30.5098 29.8213 30.625 29.5312 30.625H5.46875C5.17867 30.625 4.90047 30.5098 4.69535 30.3046C4.49023 30.0995 4.375 29.8213 4.375 29.5312V5.46875C4.375 5.17867 4.49023 4.90047 4.69535 4.69535C4.90047 4.49023 5.17867 4.375 5.46875 4.375H19.6875C19.9776 4.375 20.2558 4.25977 20.4609 4.05465C20.666 3.84953 20.7812 3.57133 20.7812 3.28125C20.7812 2.99117 20.666 2.71297 20.4609 2.50785C20.2558 2.30273 19.9776 2.1875 19.6875 2.1875H5.46875C4.59851 2.1875 3.76391 2.5332 3.14856 3.14856C2.5332 3.76391 2.1875 4.59851 2.1875 5.46875V29.5312Z" fill="#4B2E2B"/>
</svg>
