<svg width="60" height="60" viewBox="0 0 60 60" fill="none" xmlns="http://www.w3.org/2000/svg">
<path fill-rule="evenodd" clip-rule="evenodd" d="M30 0C25.0509 0.0155194 20.2706 1.80051 16.5225 5.0325C13.65 7.5075 11.5687 10.7325 11.0325 13.9688C4.7475 15.3562 0 20.8312 0 27.4425C0 35.1225 6.405 41.25 14.1788 41.25H28.125V21.4012L20.0775 29.4525C19.7254 29.8046 19.2479 30.0024 18.75 30.0024C18.2521 30.0024 17.7746 29.8046 17.4225 29.4525C17.0704 29.1004 16.8726 28.6229 16.8726 28.125C16.8726 27.6271 17.0704 27.1496 17.4225 26.7975L28.6725 15.5475C28.8467 15.3729 29.0536 15.2344 29.2814 15.1398C29.5092 15.0453 29.7534 14.9966 30 14.9966C30.2466 14.9966 30.4908 15.0453 30.7186 15.1398C30.9464 15.2344 31.1533 15.3729 31.3275 15.5475L42.5775 26.7975C42.9296 27.1496 43.1274 27.6271 43.1274 28.125C43.1274 28.6229 42.9296 29.1004 42.5775 29.4525C42.2254 29.8046 41.7479 30.0024 41.25 30.0024C40.7521 30.0024 40.2746 29.8046 39.9225 29.4525L31.875 21.4012V41.25H47.58C54.3825 41.25 60 35.8875 60 29.1487C60 23.0137 55.3425 18.015 49.3725 17.1712C48.4613 7.49625 40.0875 0 30 0ZM28.125 54.375V41.25H31.875V54.375C31.875 54.8723 31.6775 55.3492 31.3258 55.7008C30.9742 56.0525 30.4973 56.25 30 56.25C29.5027 56.25 29.0258 56.0525 28.6742 55.7008C28.3225 55.3492 28.125 54.8723 28.125 54.375Z" fill="#4B2E2B"/>
</svg>
