<svg width="15" height="15" viewBox="0 0 15 15" fill="none" xmlns="http://www.w3.org/2000/svg">
<path d="M7.5 15C6.4625 15 5.4875 14.8031 4.575 14.4094C3.6625 14.0156 2.86875 13.4812 2.19375 12.8062C1.51875 12.1312 0.984375 11.3375 0.590625 10.425C0.196875 9.5125 0 8.5375 0 7.5C0 6.4625 0.196875 5.4875 0.590625 4.575C0.984375 3.6625 1.51875 2.86875 2.19375 2.19375C2.86875 1.51875 3.6625 0.984375 4.575 0.590625C5.4875 0.196875 6.4625 0 7.5 0C8.5375 0 9.5125 0.196875 10.425 0.590625C11.3375 0.984375 12.1312 1.51875 12.8062 2.19375C13.4812 2.86875 14.0156 3.6625 14.4094 4.575C14.8031 5.4875 15 6.4625 15 7.5V8.5875C15 9.325 14.7469 9.95312 14.2406 10.4719C13.7344 10.9906 13.1125 11.25 12.375 11.25C11.9375 11.25 11.525 11.1562 11.1375 10.9688C10.75 10.7812 10.425 10.5125 10.1625 10.1625C9.8 10.525 9.39062 10.7969 8.93437 10.9781C8.47812 11.1594 8 11.25 7.5 11.25C6.4625 11.25 5.57812 10.8844 4.84688 10.1531C4.11563 9.42188 3.75 8.5375 3.75 7.5C3.75 6.4625 4.11563 5.57812 4.84688 4.84688C5.57812 4.11563 6.4625 3.75 7.5 3.75C8.5375 3.75 9.42188 4.11563 10.1531 4.84688C10.8844 5.57812 11.25 6.4625 11.25 7.5V8.5875C11.25 8.9125 11.3563 9.1875 11.5688 9.4125C11.7812 9.6375 12.05 9.75 12.375 9.75C12.7 9.75 12.9688 9.6375 13.1812 9.4125C13.3937 9.1875 13.5 8.9125 13.5 8.5875V7.5C13.5 5.825 12.9188 4.40625 11.7563 3.24375C10.5938 2.08125 9.175 1.5 7.5 1.5C5.825 1.5 4.40625 2.08125 3.24375 3.24375C2.08125 4.40625 1.5 5.825 1.5 7.5C1.5 9.175 2.08125 10.5938 3.24375 11.7563C4.40625 12.9188 5.825 13.5 7.5 13.5H11.25V15H7.5ZM7.5 9.75C8.125 9.75 8.65625 9.53125 9.09375 9.09375C9.53125 8.65625 9.75 8.125 9.75 7.5C9.75 6.875 9.53125 6.34375 9.09375 5.90625C8.65625 5.46875 8.125 5.25 7.5 5.25C6.875 5.25 6.34375 5.46875 5.90625 5.90625C5.46875 6.34375 5.25 6.875 5.25 7.5C5.25 8.125 5.46875 8.65625 5.90625 9.09375C6.34375 9.53125 6.875 9.75 7.5 9.75Z" fill="#C69C6D"/>
</svg>
