<svg width="13" height="10" viewBox="0 0 13 10" fill="none" xmlns="http://www.w3.org/2000/svg">
<path d="M7.58333 5.25C7.09722 5.25 6.68403 5.07986 6.34375 4.73958C6.00347 4.39931 5.83333 3.98611 5.83333 3.5C5.83333 3.01389 6.00347 2.60069 6.34375 2.26042C6.68403 1.92014 7.09722 1.75 7.58333 1.75C8.06944 1.75 8.48264 1.92014 8.82292 2.26042C9.16319 2.60069 9.33333 3.01389 9.33333 3.5C9.33333 3.98611 9.16319 4.39931 8.82292 4.73958C8.48264 5.07986 8.06944 5.25 7.58333 5.25ZM3.5 7C3.17917 7 2.90451 6.88576 2.67604 6.65729C2.44757 6.42882 2.33333 6.15417 2.33333 5.83333V1.16667C2.33333 0.845833 2.44757 0.571181 2.67604 0.342708C2.90451 0.114236 3.17917 0 3.5 0H11.6667C11.9875 0 12.2622 0.114236 12.4906 0.342708C12.7191 0.571181 12.8333 0.845833 12.8333 1.16667V5.83333C12.8333 6.15417 12.7191 6.42882 12.4906 6.65729C12.2622 6.88576 11.9875 7 11.6667 7H3.5ZM4.66667 5.83333H10.5C10.5 5.5125 10.6142 5.23785 10.8427 5.00938C11.0712 4.7809 11.3458 4.66667 11.6667 4.66667V2.33333C11.3458 2.33333 11.0712 2.2191 10.8427 1.99063C10.6142 1.76215 10.5 1.4875 10.5 1.16667H4.66667C4.66667 1.4875 4.55243 1.76215 4.32396 1.99063C4.09549 2.2191 3.82083 2.33333 3.5 2.33333V4.66667C3.82083 4.66667 4.09549 4.7809 4.32396 5.00938C4.55243 5.23785 4.66667 5.5125 4.66667 5.83333ZM11.0833 9.33333H1.16667C0.845833 9.33333 0.571181 9.2191 0.342708 8.99063C0.114236 8.76215 0 8.4875 0 8.16667V1.75H1.16667V8.16667H11.0833V9.33333ZM3.5 5.83333V1.16667V5.83333Z" fill="#82746D"/>
</svg>
