<svg width="25" height="25" viewBox="0 0 25 25" fill="none" xmlns="http://www.w3.org/2000/svg">
<path d="M3.90625 1.5625C3.49185 1.5625 3.09442 1.72712 2.8014 2.02015C2.50837 2.31317 2.34375 2.7106 2.34375 3.125V4.6875C2.34375 5.1019 2.50837 5.49933 2.8014 5.79235C3.09442 6.08538 3.49185 6.25 3.90625 6.25H4.6875V20.3125C4.6875 21.1413 5.01674 21.9362 5.60279 22.5222C6.18884 23.1083 6.9837 23.4375 7.8125 23.4375H17.1875C18.0163 23.4375 18.8112 23.1083 19.3972 22.5222C19.9833 21.9362 20.3125 21.1413 20.3125 20.3125V6.25H21.0938C21.5082 6.25 21.9056 6.08538 22.1986 5.79235C22.4916 5.49933 22.6562 5.1019 22.6562 4.6875V3.125C22.6562 2.7106 22.4916 2.31317 22.1986 2.02015C21.9056 1.72712 21.5082 1.5625 21.0938 1.5625H15.625C15.625 1.1481 15.4604 0.750671 15.1674 0.457646C14.8743 0.16462 14.4769 0 14.0625 0L10.9375 0C10.5231 0 10.1257 0.16462 9.83265 0.457646C9.53962 0.750671 9.375 1.1481 9.375 1.5625H3.90625ZM8.59375 7.8125C8.80095 7.8125 8.99966 7.89481 9.14618 8.04132C9.29269 8.18784 9.375 8.38655 9.375 8.59375V19.5312C9.375 19.7385 9.29269 19.9372 9.14618 20.0837C8.99966 20.2302 8.80095 20.3125 8.59375 20.3125C8.38655 20.3125 8.18784 20.2302 8.04132 20.0837C7.89481 19.9372 7.8125 19.7385 7.8125 19.5312V8.59375C7.8125 8.38655 7.89481 8.18784 8.04132 8.04132C8.18784 7.89481 8.38655 7.8125 8.59375 7.8125ZM12.5 7.8125C12.7072 7.8125 12.9059 7.89481 13.0524 8.04132C13.1989 8.18784 13.2812 8.38655 13.2812 8.59375V19.5312C13.2812 19.7385 13.1989 19.9372 13.0524 20.0837C12.9059 20.2302 12.7072 20.3125 12.5 20.3125C12.2928 20.3125 12.0941 20.2302 11.9476 20.0837C11.8011 19.9372 11.7188 19.7385 11.7188 19.5312V8.59375C11.7188 8.38655 11.8011 8.18784 11.9476 8.04132C12.0941 7.89481 12.2928 7.8125 12.5 7.8125ZM17.1875 8.59375V19.5312C17.1875 19.7385 17.1052 19.9372 16.9587 20.0837C16.8122 20.2302 16.6135 20.3125 16.4062 20.3125C16.199 20.3125 16.0003 20.2302 15.8538 20.0837C15.7073 19.9372 15.625 19.7385 15.625 19.5312V8.59375C15.625 8.38655 15.7073 8.18784 15.8538 8.04132C16.0003 7.89481 16.199 7.8125 16.4062 7.8125C16.6135 7.8125 16.8122 7.89481 16.9587 8.04132C17.1052 8.18784 17.1875 8.38655 17.1875 8.59375Z" fill="#4B2E2B"/>
</svg>
