<svg width="30" height="30" viewBox="0 0 30 30" fill="none" xmlns="http://www.w3.org/2000/svg">
<path d="M3.75 0C2.75544 0 1.80161 0.395088 1.09835 1.09835C0.395088 1.80161 0 2.75544 0 3.75L0 27.7369C3.94029e-05 27.9224 0.0551111 28.1037 0.158245 28.2579C0.261379 28.4121 0.407938 28.5322 0.579374 28.6031C0.750809 28.6739 0.939414 28.6924 1.12132 28.656C1.30322 28.6196 1.47024 28.5301 1.60125 28.3988L6.95062 23.0494C7.30217 22.6977 7.77901 22.5001 8.27625 22.5H26.25C27.2446 22.5 28.1984 22.1049 28.9016 21.4016C29.6049 20.6984 30 19.7446 30 18.75V3.75C30 2.75544 29.6049 1.80161 28.9016 1.09835C28.1984 0.395088 27.2446 0 26.25 0L3.75 0Z" fill="#B1894A"/>
</svg>
