<svg width="30" height="30" viewBox="0 0 30 30" fill="none" xmlns="http://www.w3.org/2000/svg">
<path d="M16.819 9.31907C17.0831 9.06762 17.4346 8.9286 17.7993 8.93136C18.1639 8.93412 18.5133 9.07844 18.7736 9.33386C19.0339 9.58929 19.1847 9.93584 19.1944 10.3004C19.204 10.665 19.0717 11.019 18.8252 11.2878L11.344 20.6441C11.2153 20.7826 11.0601 20.8938 10.8875 20.971C10.7149 21.0482 10.5285 21.0898 10.3395 21.0933C10.1504 21.0968 9.96262 21.0621 9.78728 20.9914C9.61194 20.9206 9.45267 20.8153 9.31898 20.6816L4.35773 15.7203C4.21957 15.5916 4.10875 15.4363 4.03189 15.2638C3.95503 15.0913 3.91371 14.9051 3.91038 14.7163C3.90704 14.5275 3.94178 14.3399 4.0125 14.1648C4.08323 13.9897 4.1885 13.8307 4.32204 13.6971C4.45557 13.5636 4.61464 13.4583 4.78974 13.3876C4.96484 13.3169 5.1524 13.2821 5.34121 13.2855C5.53003 13.2888 5.71624 13.3301 5.88874 13.407C6.06124 13.4838 6.21649 13.5947 6.34523 13.7328L10.2715 17.6572L16.7815 9.36033L16.819 9.31907ZM15.094 18.9566L16.819 20.6816C16.9526 20.815 17.1118 20.9201 17.287 20.9907C17.4621 21.0612 17.6497 21.0958 17.8385 21.0923C18.0273 21.0888 18.2135 21.0473 18.3859 20.9703C18.5583 20.8933 18.7135 20.7823 18.8421 20.6441L26.3271 11.2878C26.4616 11.1551 26.5679 10.9966 26.6397 10.8218C26.7116 10.6471 26.7475 10.4596 26.7453 10.2707C26.7431 10.0818 26.7028 9.89523 26.6269 9.7222C26.551 9.54917 26.441 9.39321 26.3035 9.26363C26.166 9.13405 26.0038 9.03352 25.8265 8.96803C25.6493 8.90254 25.4607 8.87344 25.272 8.88246C25.0832 8.89149 24.8982 8.93846 24.7281 9.02056C24.5579 9.10266 24.406 9.21822 24.2815 9.36033L17.7696 17.6572L16.8602 16.7459L15.094 18.9566Z" fill="#519564"/>
</svg>
