<svg width="25" height="25" viewBox="0 0 25 25" fill="none" xmlns="http://www.w3.org/2000/svg">
<path d="M15.356 4.6875H21.5779C22.0121 4.68745 22.4416 4.77792 22.839 4.95311C23.2363 5.12831 23.5928 5.38439 23.8856 5.70503C24.1785 6.02567 24.4013 6.40383 24.5398 6.81538C24.6784 7.22693 24.7297 7.66284 24.6904 8.09531L23.6951 19.0328C23.6245 19.8092 23.2663 20.5313 22.6907 21.0571C22.1151 21.583 21.3637 21.8747 20.5841 21.875H4.4138C3.63418 21.8747 2.88282 21.583 2.30724 21.0571C1.73166 20.5313 1.37342 19.8092 1.30287 19.0328L0.307554 8.09531C0.2423 7.37164 0.431258 6.64786 0.841929 6.04844L0.780992 4.6875C0.780992 3.8587 1.11023 3.06384 1.69628 2.47779C2.28233 1.89174 3.07719 1.5625 3.90599 1.5625H9.64349C10.4722 1.56268 11.267 1.89203 11.8529 2.47812L13.1466 3.77188C13.7325 4.35797 14.5273 4.68732 15.356 4.6875ZM2.35287 4.875C2.68828 4.75104 3.04453 4.68854 3.42162 4.6875H11.8529L10.7482 3.58281C10.4552 3.28977 10.0579 3.12509 9.64349 3.125H3.90599C3.49668 3.12493 3.10369 3.28546 2.8115 3.5721C2.51932 3.85874 2.35127 4.24858 2.34349 4.65781L2.35287 4.875Z" fill="#4B2E2B"/>
</svg>
