<svg width="30" height="30" viewBox="0 0 30 30" fill="none" xmlns="http://www.w3.org/2000/svg">
<path d="M4.6875 28.125C4.43886 28.125 4.2004 28.0262 4.02459 27.8504C3.84877 27.6746 3.75 27.4361 3.75 27.1875C3.75 26.9389 3.84877 26.7004 4.02459 26.5246C4.2004 26.3488 4.43886 26.25 4.6875 26.25H6.5625V24.375C6.56211 22.7831 7.0121 21.2235 7.86047 19.8765C8.70884 18.5294 9.92098 17.4499 11.3569 16.7625C11.9006 16.5019 12.1875 16.0556 12.1875 15.6563V14.3438C12.1875 13.9444 11.8988 13.4981 11.3569 13.2375C9.92098 12.5501 8.70884 11.4706 7.86047 10.1235C7.0121 8.7765 6.56211 7.21693 6.5625 5.625V3.75H4.6875C4.43886 3.75 4.2004 3.65123 4.02459 3.47541C3.84877 3.2996 3.75 3.06114 3.75 2.8125C3.75 2.56386 3.84877 2.3254 4.02459 2.14959C4.2004 1.97377 4.43886 1.875 4.6875 1.875H25.3125C25.5611 1.875 25.7996 1.97377 25.9754 2.14959C26.1512 2.3254 26.25 2.56386 26.25 2.8125C26.25 3.06114 26.1512 3.2996 25.9754 3.47541C25.7996 3.65123 25.5611 3.75 25.3125 3.75H23.4375V5.625C23.4379 7.21693 22.9879 8.7765 22.1395 10.1235C21.2912 11.4706 20.079 12.5501 18.6431 13.2375C18.0994 13.4981 17.8125 13.9444 17.8125 14.3438V15.6563C17.8125 16.0556 18.1012 16.5019 18.6431 16.7625C20.079 17.4499 21.2912 18.5294 22.1395 19.8765C22.9879 21.2235 23.4379 22.7831 23.4375 24.375V26.25H25.3125C25.5611 26.25 25.7996 26.3488 25.9754 26.5246C26.1512 26.7004 26.25 26.9389 26.25 27.1875C26.25 27.4361 26.1512 27.6746 25.9754 27.8504C25.7996 28.0262 25.5611 28.125 25.3125 28.125H4.6875ZM8.4375 3.75V5.625C8.4375 6.63188 8.6625 7.58437 9.06938 8.4375H20.9306C21.3356 7.58437 21.5625 6.63188 21.5625 5.625V3.75H8.4375ZM14.0625 15.6563C14.0625 16.9706 13.1662 17.9737 12.1669 18.4538C11.0499 18.9883 10.107 19.828 9.4471 20.8758C8.78717 21.9236 8.43716 23.1367 8.4375 24.375C8.4375 24.375 10.0612 21.9394 14.0625 21.6V15.6563ZM15.9375 15.6563V21.6C19.9387 21.9394 21.5625 24.375 21.5625 24.375C21.5628 23.1367 21.2128 21.9236 20.5529 20.8758C19.893 19.828 18.9501 18.9883 17.8331 18.4538C16.8337 17.9737 15.9375 16.9706 15.9375 15.6563Z" fill="#496B99"/>
</svg>
